<?xml version="1.0" standalone="no"?>
<!DOCTYPE svg PUBLIC "-//W3C//DTD SVG 20010904//EN"
 "http://www.w3.org/TR/2001/REC-SVG-20010904/DTD/svg10.dtd">
<svg version="1.0" xmlns="http://www.w3.org/2000/svg"
 width="200.000000pt" height="200.000000pt" viewBox="0 0 200.000000 200.000000"
 preserveAspectRatio="xMidYMid meet">

<g transform="translate(0.000000,200.000000) scale(0.100000,-0.100000)"
fill="#000000" stroke="none">
<path d="M0 1000 l0 -1000 1000 0 1000 0 0 1000 0 1000 -1000 0 -1000 0 0
-1000z m1050 598 c41 -51 100 -160 100 -185 0 -7 24 -30 53 -52 95 -70 148
-153 163 -256 6 -42 16 -59 62 -110 52 -56 122 -180 122 -216 0 -31 -93 -53
-225 -55 -113 -1 -124 -3 -188 -33 -112 -54 -224 -52 -341 6 -41 21 -64 25
-165 27 -108 2 -197 20 -224 45 -14 13 71 165 126 226 45 50 55 68 60 109 11
82 54 161 118 221 32 29 68 56 79 60 11 3 20 13 20 21 0 33 60 143 110 201 62
72 66 71 130 -9z m-538 -1007 c23 -1 41 -37 34 -67 -4 -16 -18 -27 -46 -35
-35 -11 -40 -16 -40 -41 0 -26 -3 -29 -27 -26 -27 3 -28 5 -31 77 -2 41 -1 79
2 86 3 10 32 12 108 6z m194 -12 c17 -14 18 -51 3 -66 -8 -8 -6 -19 5 -41 22
-42 20 -52 -9 -52 -17 0 -32 11 -49 36 l-25 37 -3 -34 c-2 -29 -7 -34 -30 -37
l-28 -3 0 89 0 90 61 -4 c34 -2 68 -9 75 -15z m163 6 c32 -16 41 -33 41 -75 0
-42 -9 -59 -41 -75 -40 -21 -74 -18 -106 9 -23 20 -28 32 -27 67 2 74 66 109
133 74z m160 -1 c7 -8 61 -149 61 -160 0 -2 -13 -4 -30 -4 -20 0 -30 5 -30 15
0 10 -10 15 -29 15 -16 0 -31 -6 -35 -15 -6 -16 -41 -20 -51 -6 -3 5 4 36 16
68 12 32 25 68 30 80 6 16 15 21 34 18 15 -1 30 -6 34 -11z m119 -53 c3 -58 5
-62 25 -59 19 3 23 11 27 62 4 52 8 60 27 61 28 2 32 -8 27 -80 -4 -70 -25
-95 -81 -95 -55 0 -83 36 -83 108 0 66 1 69 32 67 21 -1 23 -7 26 -64z m280
41 c3 -18 -2 -22 -22 -22 -24 0 -25 -3 -28 -62 -3 -60 -4 -63 -28 -63 -24 0
-25 3 -28 63 -3 58 -4 62 -27 62 -18 0 -25 5 -25 19 0 17 8 20 53 23 91 5 102
3 105 -20z m153 -1 c20 -20 29 -39 29 -61 0 -43 -47 -90 -90 -90 -43 0 -90 47
-90 90 0 43 47 90 90 90 22 0 41 -9 61 -29z"/>
<path d="M962 1503 c-49 -70 -49 -71 23 -71 l65 -1 -22 40 c-33 60 -43 64 -66
32z"/>
<path d="M924 1353 c-38 -5 -44 -20 -44 -115 l0 -68 99 0 c111 0 111 0 111 78
0 60 -8 89 -26 96 -22 9 -106 14 -140 9z"/>
<path d="M736 1249 c-33 -39 -74 -124 -65 -134 3 -2 31 6 62 18 l58 22 -7 65
c-4 36 -8 66 -9 68 -1 2 -19 -16 -39 -39z"/>
<path d="M1170 1223 l0 -68 57 -22 c32 -12 59 -21 61 -19 15 15 -84 176 -109
176 -5 0 -9 -30 -9 -67z"/>
<path d="M925 1080 c-7 -11 44 -110 56 -110 5 0 22 23 38 52 22 38 27 54 18
60 -18 11 -105 10 -112 -2z"/>
<path d="M732 1024 l-71 -35 19 -50 c21 -56 65 -119 83 -119 18 0 134 56 141
69 7 10 -83 171 -95 171 -4 0 -38 -16 -77 -36z"/>
<path d="M1135 1039 c-3 -10 -25 -46 -47 -80 l-41 -61 24 -19 c49 -37 119 -64
137 -53 26 16 72 96 78 135 6 33 4 35 -43 58 -78 38 -101 43 -108 20z"/>
<path d="M561 882 c-37 -58 -38 -68 -8 -76 25 -6 107 -8 107 -2 0 4 -60 119
-64 124 -2 1 -18 -19 -35 -46z"/>
<path d="M1326 864 l-35 -67 70 5 c38 3 72 8 76 11 7 7 -40 88 -61 106 -12 10
-20 1 -50 -55z"/>
<path d="M912 792 l-63 -37 33 -14 c42 -18 142 -19 192 -2 l38 13 -61 39 c-34
22 -65 39 -69 39 -4 -1 -35 -18 -70 -38z"/>
<path d="M460 540 c0 -5 7 -10 15 -10 8 0 15 5 15 10 0 6 -7 10 -15 10 -8 0
-15 -4 -15 -10z"/>
<path d="M630 540 c0 -5 7 -10 15 -10 8 0 15 5 15 10 0 6 -7 10 -15 10 -8 0
-15 -4 -15 -10z"/>
<path d="M794 526 c-9 -37 2 -58 28 -54 19 2 23 9 23 38 0 29 -4 36 -22 38
-17 3 -24 -3 -29 -22z"/>
<path d="M990 513 c0 -13 5 -23 10 -23 13 0 13 11 0 30 -8 12 -10 11 -10 -7z"/>
<path d="M1494 536 c-3 -8 -4 -25 -2 -38 2 -17 9 -23 28 -23 22 0 25 4 25 35
0 29 -4 36 -23 38 -13 2 -24 -3 -28 -12z"/>
</g>
</svg>
